<?xml version="1.0" encoding="UTF-8"?>
<svg xmlns="http://www.w3.org/2000/svg" width="2200" height="1760" viewBox="0 0 2200 1760">
  <defs>
    <filter id="shadow" x="-20%" y="-20%" width="140%" height="140%">
      <feDropShadow dx="0" dy="8" stdDeviation="8" flood-color="#0D1B2A" flood-opacity="0.12"/>
    </filter>
    <marker id="arrow" markerWidth="12" markerHeight="12" refX="10" refY="6" orient="auto" markerUnits="strokeWidth">
      <path d="M2,2 L10,6 L2,10 Z" fill="#1F7A6E"/>
    </marker>
    <style>
      .bg { fill: #F5F1EA; }
      .box { fill: #FAFAF7; stroke: #D9E1DE; stroke-width: 2; filter: url(#shadow); }
      .header, .headerFill { fill: #2A9D8F; }
      .tableTitle { font-family: Inter, Arial, sans-serif; font-size: 23px; font-weight: 700; fill: white; }
      .field { font-family: "JetBrains Mono", Consolas, monospace; font-size: 18px; fill: #1A1A2E; }
      .rowline { stroke: rgba(13,27,42,0.08); stroke-width: 1; }
      .link { fill: none; stroke: #1F7A6E; stroke-width: 3; opacity: 0.68; }
      .link.dashed { stroke-dasharray: 8 8; }
      .linkLabel { font-family: Inter, Arial, sans-serif; font-size: 16px; font-weight: 700; fill: #1F7A6E; text-anchor: middle; paint-order: stroke; stroke: #F5F1EA; stroke-width: 5px; stroke-linejoin: round; }
      .title { font-family: Georgia, serif; font-size: 48px; font-style: italic; fill: #0D1B2A; }
      .subtitle { font-family: Inter, Arial, sans-serif; font-size: 20px; fill: #667085; }
      .module { font-family: "JetBrains Mono", Consolas, monospace; font-size: 16px; letter-spacing: 2px; fill: #1F7A6E; font-weight: 700; }
    </style>
  </defs>
  <rect class="bg" width="100%" height="100%"/>
  <text x="80" y="72" class="title">TripCraft database schema</text>
  <text x="80" y="106" class="subtitle">Logical ER view: users, Bayesian quiz profiles, geography, tags, itineraries and social planning</text>
  <text x="80" y="135" class="module">USER PROFILE</text>
  <text x="570" y="135" class="module">GEOGRAPHY</text>
  <text x="1100" y="135" class="module">TAXONOMY &amp; QUIZ</text>
  <text x="570" y="1060" class="module">ITINERARY GENERATION</text>
  <text x="1540" y="960" class="module">SOCIAL PLANNING</text>
  
  <path d="M 230 388 C 245 388, 245 420, 260 420" class="link solid" marker-end="url(#arrow)"/>
  <text x="245" y="396" class="linkLabel">1:N</text>

  <path d="M 380 269 C 230 269, 230 879, 80 879" class="link solid" marker-end="url(#arrow)"/>
  <text x="230" y="566" class="linkLabel">1:N</text>

  <path d="M 380 269 C 475 269, 475 1230, 570 1230" class="link solid" marker-end="url(#arrow)"/>
  <text x="475" y="741.5" class="linkLabel">1:N</text>

  <path d="M 230 388 C 245 388, 245 1120, 260 1120" class="link solid" marker-end="url(#arrow)"/>
  <text x="245" y="746" class="linkLabel">1:N</text>

  <path d="M 230 388 C 245 388, 245 1360, 260 1360" class="link solid" marker-end="url(#arrow)"/>
  <text x="245" y="866" class="linkLabel">2 roles</text>

  <path d="M 730 388 C 730 388, 730 420, 730 420" class="link solid" marker-end="url(#arrow)"/>
  <text x="730" y="396" class="linkLabel">1:N</text>

  <path d="M 730 658 C 740 658, 740 710, 750 710" class="link solid" marker-end="url(#arrow)"/>
  <text x="740" y="676" class="linkLabel">1:N</text>

  <path d="M 890 269 C 1215 269, 1215 192.5, 1540 192.5" class="link solid" marker-end="url(#arrow)"/>
  <text x="1215" y="222.75" class="linkLabel">M:N</text>

  <path d="M 890 539 C 1215 539, 1215 377.5, 1540 377.5" class="link solid" marker-end="url(#arrow)"/>
  <text x="1215" y="450.25" class="linkLabel">M:N</text>

  <path d="M 930 844.5 C 1235 844.5, 1235 562.5, 1540 562.5" class="link solid" marker-end="url(#arrow)"/>
  <text x="1235" y="695.5" class="linkLabel">M:N</text>

  <path d="M 1430 269 C 1485 269, 1485 192.5, 1540 192.5" class="link solid" marker-end="url(#arrow)"/>
  <text x="1485" y="222.75" class="linkLabel">tag</text>

  <path d="M 1430 269 C 1485 269, 1485 377.5, 1540 377.5" class="link solid" marker-end="url(#arrow)"/>
  <text x="1485" y="315.25" class="linkLabel">tag</text>

  <path d="M 1430 269 C 1485 269, 1485 562.5, 1540 562.5" class="link solid" marker-end="url(#arrow)"/>
  <text x="1485" y="407.75" class="linkLabel">tag</text>

  <path d="M 1265 388 C 1265 388, 1265 470, 1265 470" class="link solid" marker-end="url(#arrow)"/>
  <text x="1265" y="421" class="linkLabel">1:N</text>

  <path d="M 1265 677 C 1265 677, 1265 735, 1265 735" class="link solid" marker-end="url(#arrow)"/>
  <text x="1265" y="698" class="linkLabel">1:N</text>

  <path d="M 1430 823 C 1485 823, 1485 807.5, 1540 807.5" class="link solid" marker-end="url(#arrow)"/>
  <text x="1485" y="807.25" class="linkLabel">M:N</text>

  <path d="M 1430 269 C 1485 269, 1485 807.5, 1540 807.5" class="link solid" marker-end="url(#arrow)"/>
  <text x="1485" y="530.25" class="linkLabel">weight</text>

  <path d="M 730 388 C 742.5 388, 742.5 1080, 755 1080" class="link solid" marker-end="url(#arrow)"/>
  <text x="742.5" y="726" class="linkLabel">destination</text>

  <path d="M 940 1230 C 985 1230, 985 1193.5, 1030 1193.5" class="link solid" marker-end="url(#arrow)"/>
  <text x="985" y="1203.75" class="linkLabel">1:N</text>

  <path d="M 730 658 C 965 658, 965 1090, 1200 1090" class="link solid" marker-end="url(#arrow)"/>
  <text x="965" y="866" class="linkLabel">visited</text>

  <path d="M 570 1230 C 505 1230, 505 1223.5, 440 1223.5" class="link solid" marker-end="url(#arrow)"/>
  <text x="505" y="1218.75" class="linkLabel">1:N</text>

  <path d="M 440 554.5 C 505 554.5, 505 1230, 570 1230" class="link solid" marker-end="url(#arrow)"/>
  <text x="505" y="884.25" class="linkLabel">profile</text>

  <path d="M 380 269 C 960 269, 960 1099, 1540 1099" class="link solid" marker-end="url(#arrow)"/>
  <text x="960" y="676" class="linkLabel">creator</text>

  <path d="M 890 269 C 1215 269, 1215 1099, 1540 1099" class="link solid" marker-end="url(#arrow)"/>
  <text x="1215" y="676" class="linkLabel">destination</text>

  <path d="M 1705 1218 C 1705 1218, 1705 1240, 1705 1240" class="link solid" marker-end="url(#arrow)"/>
  <text x="1705" y="1221" class="linkLabel">1:N</text>

  <path d="M 380 269 C 960 269, 960 1328, 1540 1328" class="link solid" marker-end="url(#arrow)"/>
  <text x="960" y="790.5" class="linkLabel">member</text>

  <path d="M 1540 1099 C 1240 1099, 1240 1230, 940 1230" class="link solid" marker-end="url(#arrow)"/>
  <text x="1240" y="1156.5" class="linkLabel">group plan</text>
  
  <g class="table" id="users">
    <rect x="80" y="150" width="300" height="238" rx="18" class="box"/>
    <rect x="80" y="150" width="300" height="48" rx="18" class="header"/>
    <path d="M 80 180 L 80 198 L 380 198 L 380 180" class="headerFill"/>
    <text x="98" y="181" class="tableTitle">users</text>
    
    <text x="98" y="228" class="field">id PK</text>
    <line x1="94" y1="241" x2="366" y2="241" class="rowline"/>
    <text x="98" y="259" class="field">email</text>
    <line x1="94" y1="272" x2="366" y2="272" class="rowline"/>
    <text x="98" y="290" class="field">username</text>
    <line x1="94" y1="303" x2="366" y2="303" class="rowline"/>
    <text x="98" y="321" class="field">full_name</text>
    <line x1="94" y1="334" x2="366" y2="334" class="rowline"/>
    <text x="98" y="352" class="field">is_active</text>
    <line x1="94" y1="365" x2="366" y2="365" class="rowline"/>
    <text x="98" y="383" class="field">created_at</text>
    
  </g>

  <g class="table" id="sessions">
    <rect x="80" y="420" width="360" height="269" rx="18" class="box"/>
    <rect x="80" y="420" width="360" height="48" rx="18" class="header"/>
    <path d="M 80 450 L 80 468 L 440 468 L 440 450" class="headerFill"/>
    <text x="98" y="451" class="tableTitle">quiz_v4_sessions</text>
    
    <text x="98" y="498" class="field">id PK</text>
    <line x1="94" y1="511" x2="426" y2="511" class="rowline"/>
    <text x="98" y="529" class="field">user_id FK</text>
    <line x1="94" y1="542" x2="426" y2="542" class="rowline"/>
    <text x="98" y="560" class="field">current_stage</text>
    <line x1="94" y1="573" x2="426" y2="573" class="rowline"/>
    <text x="98" y="591" class="field">tag_beliefs JSONB</text>
    <line x1="94" y1="604" x2="426" y2="604" class="rowline"/>
    <text x="98" y="622" class="field">final_profile JSONB</text>
    <line x1="94" y1="635" x2="426" y2="635" class="rowline"/>
    <text x="98" y="653" class="field">budget / season / style</text>
    <line x1="94" y1="666" x2="426" y2="666" class="rowline"/>
    <text x="98" y="684" class="field">pace_preference</text>
    
  </g>

  <g class="table" id="impressions">
    <rect x="80" y="760" width="360" height="238" rx="18" class="box"/>
    <rect x="80" y="760" width="360" height="48" rx="18" class="header"/>
    <path d="M 80 790 L 80 808 L 440 808 L 440 790" class="headerFill"/>
    <text x="98" y="791" class="tableTitle">recommendation_impressions</text>
    
    <text x="98" y="838" class="field">id PK</text>
    <line x1="94" y1="851" x2="426" y2="851" class="rowline"/>
    <text x="98" y="869" class="field">user_id FK</text>
    <line x1="94" y1="882" x2="426" y2="882" class="rowline"/>
    <text x="98" y="900" class="field">session_id</text>
    <line x1="94" y1="913" x2="426" y2="913" class="rowline"/>
    <text x="98" y="931" class="field">surface</text>
    <line x1="94" y1="944" x2="426" y2="944" class="rowline"/>
    <text x="98" y="962" class="field">model_version</text>
    <line x1="94" y1="975" x2="426" y2="975" class="rowline"/>
    <text x="98" y="993" class="field">ranking JSONB</text>
    
  </g>

  <g class="table" id="countries">
    <rect x="570" y="150" width="320" height="238" rx="18" class="box"/>
    <rect x="570" y="150" width="320" height="48" rx="18" class="header"/>
    <path d="M 570 180 L 570 198 L 890 198 L 890 180" class="headerFill"/>
    <text x="588" y="181" class="tableTitle">countries</text>
    
    <text x="588" y="228" class="field">id PK</text>
    <line x1="584" y1="241" x2="876" y2="241" class="rowline"/>
    <text x="588" y="259" class="field">name</text>
    <line x1="584" y1="272" x2="876" y2="272" class="rowline"/>
    <text x="588" y="290" class="field">iso2</text>
    <line x1="584" y1="303" x2="876" y2="303" class="rowline"/>
    <text x="588" y="321" class="field">capital</text>
    <line x1="584" y1="334" x2="876" y2="334" class="rowline"/>
    <text x="588" y="352" class="field">avg_cost_per_day</text>
    <line x1="584" y1="365" x2="876" y2="365" class="rowline"/>
    <text x="588" y="383" class="field">best_seasons</text>
    
  </g>

  <g class="table" id="cities">
    <rect x="570" y="420" width="320" height="238" rx="18" class="box"/>
    <rect x="570" y="420" width="320" height="48" rx="18" class="header"/>
    <path d="M 570 450 L 570 468 L 890 468 L 890 450" class="headerFill"/>
    <text x="588" y="451" class="tableTitle">cities</text>
    
    <text x="588" y="498" class="field">id PK</text>
    <line x1="584" y1="511" x2="876" y2="511" class="rowline"/>
    <text x="588" y="529" class="field">country_id FK</text>
    <line x1="584" y1="542" x2="876" y2="542" class="rowline"/>
    <text x="588" y="560" class="field">name</text>
    <line x1="584" y1="573" x2="876" y2="573" class="rowline"/>
    <text x="588" y="591" class="field">latitude / longitude</text>
    <line x1="584" y1="604" x2="876" y2="604" class="rowline"/>
    <text x="588" y="622" class="field">is_capital</text>
    <line x1="584" y1="635" x2="876" y2="635" class="rowline"/>
    <text x="588" y="653" class="field">image_url</text>
    
  </g>

  <g class="table" id="attractions">
    <rect x="570" y="710" width="360" height="269" rx="18" class="box"/>
    <rect x="570" y="710" width="360" height="48" rx="18" class="header"/>
    <path d="M 570 740 L 570 758 L 930 758 L 930 740" class="headerFill"/>
    <text x="588" y="741" class="tableTitle">attractions</text>
    
    <text x="588" y="788" class="field">id PK</text>
    <line x1="584" y1="801" x2="916" y2="801" class="rowline"/>
    <text x="588" y="819" class="field">city_id FK</text>
    <line x1="584" y1="832" x2="916" y2="832" class="rowline"/>
    <text x="588" y="850" class="field">name</text>
    <line x1="584" y1="863" x2="916" y2="863" class="rowline"/>
    <text x="588" y="881" class="field">category</text>
    <line x1="584" y1="894" x2="916" y2="894" class="rowline"/>
    <text x="588" y="912" class="field">avg_duration_hours</text>
    <line x1="584" y1="925" x2="916" y2="925" class="rowline"/>
    <text x="588" y="943" class="field">entry_fee_eur</text>
    <line x1="584" y1="956" x2="916" y2="956" class="rowline"/>
    <text x="588" y="974" class="field">rating</text>
    
  </g>

  <g class="table" id="tags">
    <rect x="1100" y="150" width="330" height="238" rx="18" class="box"/>
    <rect x="1100" y="150" width="330" height="48" rx="18" class="header"/>
    <path d="M 1100 180 L 1100 198 L 1430 198 L 1430 180" class="headerFill"/>
    <text x="1118" y="181" class="tableTitle">tags</text>
    
    <text x="1118" y="228" class="field">id PK</text>
    <line x1="1114" y1="241" x2="1416" y2="241" class="rowline"/>
    <text x="1118" y="259" class="field">parent_id FK</text>
    <line x1="1114" y1="272" x2="1416" y2="272" class="rowline"/>
    <text x="1118" y="290" class="field">name</text>
    <line x1="1114" y1="303" x2="1416" y2="303" class="rowline"/>
    <text x="1118" y="321" class="field">slug</text>
    <line x1="1114" y1="334" x2="1416" y2="334" class="rowline"/>
    <text x="1118" y="352" class="field">category</text>
    <line x1="1114" y1="365" x2="1416" y2="365" class="rowline"/>
    <text x="1118" y="383" class="field">is_leaf</text>
    
  </g>

  <g class="table" id="country_tags">
    <rect x="1540" y="120" width="300" height="145" rx="18" class="box"/>
    <rect x="1540" y="120" width="300" height="48" rx="18" class="header"/>
    <path d="M 1540 150 L 1540 168 L 1840 168 L 1840 150" class="headerFill"/>
    <text x="1558" y="151" class="tableTitle">country_tags</text>
    
    <text x="1558" y="198" class="field">country_id FK</text>
    <line x1="1554" y1="211" x2="1826" y2="211" class="rowline"/>
    <text x="1558" y="229" class="field">tag_id FK</text>
    <line x1="1554" y1="242" x2="1826" y2="242" class="rowline"/>
    <text x="1558" y="260" class="field">score</text>
    
  </g>

  <g class="table" id="city_tags">
    <rect x="1540" y="305" width="300" height="145" rx="18" class="box"/>
    <rect x="1540" y="305" width="300" height="48" rx="18" class="header"/>
    <path d="M 1540 335 L 1540 353 L 1840 353 L 1840 335" class="headerFill"/>
    <text x="1558" y="336" class="tableTitle">city_tags</text>
    
    <text x="1558" y="383" class="field">city_id FK</text>
    <line x1="1554" y1="396" x2="1826" y2="396" class="rowline"/>
    <text x="1558" y="414" class="field">tag_id FK</text>
    <line x1="1554" y1="427" x2="1826" y2="427" class="rowline"/>
    <text x="1558" y="445" class="field">score</text>
    
  </g>

  <g class="table" id="attraction_tags">
    <rect x="1540" y="490" width="300" height="145" rx="18" class="box"/>
    <rect x="1540" y="490" width="300" height="48" rx="18" class="header"/>
    <path d="M 1540 520 L 1540 538 L 1840 538 L 1840 520" class="headerFill"/>
    <text x="1558" y="521" class="tableTitle">attraction_tags</text>
    
    <text x="1558" y="568" class="field">attraction_id FK</text>
    <line x1="1554" y1="581" x2="1826" y2="581" class="rowline"/>
    <text x="1558" y="599" class="field">tag_id FK</text>
    <line x1="1554" y1="612" x2="1826" y2="612" class="rowline"/>
    <text x="1558" y="630" class="field">score</text>
    
  </g>

  <g class="table" id="questions">
    <rect x="1100" y="470" width="330" height="207" rx="18" class="box"/>
    <rect x="1100" y="470" width="330" height="48" rx="18" class="header"/>
    <path d="M 1100 500 L 1100 518 L 1430 518 L 1430 500" class="headerFill"/>
    <text x="1118" y="501" class="tableTitle">questions</text>
    
    <text x="1118" y="548" class="field">id PK</text>
    <line x1="1114" y1="561" x2="1416" y2="561" class="rowline"/>
    <text x="1118" y="579" class="field">tag_id FK</text>
    <line x1="1114" y1="592" x2="1416" y2="592" class="rowline"/>
    <text x="1118" y="610" class="field">question_text</text>
    <line x1="1114" y1="623" x2="1416" y2="623" class="rowline"/>
    <text x="1118" y="641" class="field">type</text>
    <line x1="1114" y1="654" x2="1416" y2="654" class="rowline"/>
    <text x="1118" y="672" class="field">source</text>
    
  </g>

  <g class="table" id="options">
    <rect x="1100" y="735" width="330" height="176" rx="18" class="box"/>
    <rect x="1100" y="735" width="330" height="48" rx="18" class="header"/>
    <path d="M 1100 765 L 1100 783 L 1430 783 L 1430 765" class="headerFill"/>
    <text x="1118" y="766" class="tableTitle">question_options</text>
    
    <text x="1118" y="813" class="field">id PK</text>
    <line x1="1114" y1="826" x2="1416" y2="826" class="rowline"/>
    <text x="1118" y="844" class="field">question_id FK</text>
    <line x1="1114" y1="857" x2="1416" y2="857" class="rowline"/>
    <text x="1118" y="875" class="field">option_text</text>
    <line x1="1114" y1="888" x2="1416" y2="888" class="rowline"/>
    <text x="1118" y="906" class="field">value</text>
    
  </g>

  <g class="table" id="option_tags">
    <rect x="1540" y="735" width="300" height="145" rx="18" class="box"/>
    <rect x="1540" y="735" width="300" height="48" rx="18" class="header"/>
    <path d="M 1540 765 L 1540 783 L 1840 783 L 1840 765" class="headerFill"/>
    <text x="1558" y="766" class="tableTitle">option_tags</text>
    
    <text x="1558" y="813" class="field">option_id FK</text>
    <line x1="1554" y1="826" x2="1826" y2="826" class="rowline"/>
    <text x="1558" y="844" class="field">tag_id FK</text>
    <line x1="1554" y1="857" x2="1826" y2="857" class="rowline"/>
    <text x="1558" y="875" class="field">weight</text>
    
  </g>

  <g class="table" id="plans">
    <rect x="570" y="1080" width="370" height="300" rx="18" class="box"/>
    <rect x="570" y="1080" width="370" height="48" rx="18" class="header"/>
    <path d="M 570 1110 L 570 1128 L 940 1128 L 940 1110" class="headerFill"/>
    <text x="588" y="1111" class="tableTitle">itinerary_plans</text>
    
    <text x="588" y="1158" class="field">id PK</text>
    <line x1="584" y1="1171" x2="926" y2="1171" class="rowline"/>
    <text x="588" y="1189" class="field">session_id</text>
    <line x1="584" y1="1202" x2="926" y2="1202" class="rowline"/>
    <text x="588" y="1220" class="field">country_id FK</text>
    <line x1="584" y1="1233" x2="926" y2="1233" class="rowline"/>
    <text x="588" y="1251" class="field">user_id FK</text>
    <line x1="584" y1="1264" x2="926" y2="1264" class="rowline"/>
    <text x="588" y="1282" class="field">group_trip_id FK</text>
    <line x1="584" y1="1295" x2="926" y2="1295" class="rowline"/>
    <text x="588" y="1313" class="field">nr_zile</text>
    <line x1="584" y1="1326" x2="926" y2="1326" class="rowline"/>
    <text x="588" y="1344" class="field">is_saved</text>
    <line x1="584" y1="1357" x2="926" y2="1357" class="rowline"/>
    <text x="588" y="1375" class="field">source</text>
    
  </g>

  <g class="table" id="days">
    <rect x="1030" y="1090" width="340" height="207" rx="18" class="box"/>
    <rect x="1030" y="1090" width="340" height="48" rx="18" class="header"/>
    <path d="M 1030 1120 L 1030 1138 L 1370 1138 L 1370 1120" class="headerFill"/>
    <text x="1048" y="1121" class="tableTitle">itinerary_days</text>
    
    <text x="1048" y="1168" class="field">id PK</text>
    <line x1="1044" y1="1181" x2="1356" y2="1181" class="rowline"/>
    <text x="1048" y="1199" class="field">plan_id FK</text>
    <line x1="1044" y1="1212" x2="1356" y2="1212" class="rowline"/>
    <text x="1048" y="1230" class="field">city_id FK</text>
    <line x1="1044" y1="1243" x2="1356" y2="1243" class="rowline"/>
    <text x="1048" y="1261" class="field">day_number</text>
    <line x1="1044" y1="1274" x2="1356" y2="1274" class="rowline"/>
    <text x="1048" y="1292" class="field">attraction_ids JSON</text>
    
  </g>

  <g class="table" id="ratings">
    <rect x="80" y="1120" width="360" height="207" rx="18" class="box"/>
    <rect x="80" y="1120" width="360" height="48" rx="18" class="header"/>
    <path d="M 80 1150 L 80 1168 L 440 1168 L 440 1150" class="headerFill"/>
    <text x="98" y="1151" class="tableTitle">itinerary_ratings</text>
    
    <text x="98" y="1198" class="field">id PK</text>
    <line x1="94" y1="1211" x2="426" y2="1211" class="rowline"/>
    <text x="98" y="1229" class="field">plan_id FK</text>
    <line x1="94" y1="1242" x2="426" y2="1242" class="rowline"/>
    <text x="98" y="1260" class="field">user_id FK</text>
    <line x1="94" y1="1273" x2="426" y2="1273" class="rowline"/>
    <text x="98" y="1291" class="field">rating 1-5</text>
    <line x1="94" y1="1304" x2="426" y2="1304" class="rowline"/>
    <text x="98" y="1322" class="field">aspects JSON</text>
    
  </g>

  <g class="table" id="groups">
    <rect x="1540" y="980" width="330" height="238" rx="18" class="box"/>
    <rect x="1540" y="980" width="330" height="48" rx="18" class="header"/>
    <path d="M 1540 1010 L 1540 1028 L 1870 1028 L 1870 1010" class="headerFill"/>
    <text x="1558" y="1011" class="tableTitle">group_trips</text>
    
    <text x="1558" y="1058" class="field">id PK</text>
    <line x1="1554" y1="1071" x2="1856" y2="1071" class="rowline"/>
    <text x="1558" y="1089" class="field">creator_id FK</text>
    <line x1="1554" y1="1102" x2="1856" y2="1102" class="rowline"/>
    <text x="1558" y="1120" class="field">country_id FK</text>
    <line x1="1554" y1="1133" x2="1856" y2="1133" class="rowline"/>
    <text x="1558" y="1151" class="field">name</text>
    <line x1="1554" y1="1164" x2="1856" y2="1164" class="rowline"/>
    <text x="1558" y="1182" class="field">nr_zile</text>
    <line x1="1554" y1="1195" x2="1856" y2="1195" class="rowline"/>
    <text x="1558" y="1213" class="field">status</text>
    
  </g>

  <g class="table" id="members">
    <rect x="1540" y="1240" width="330" height="176" rx="18" class="box"/>
    <rect x="1540" y="1240" width="330" height="48" rx="18" class="header"/>
    <path d="M 1540 1270 L 1540 1288 L 1870 1288 L 1870 1270" class="headerFill"/>
    <text x="1558" y="1271" class="tableTitle">group_trip_members</text>
    
    <text x="1558" y="1318" class="field">id PK</text>
    <line x1="1554" y1="1331" x2="1856" y2="1331" class="rowline"/>
    <text x="1558" y="1349" class="field">trip_id FK</text>
    <line x1="1554" y1="1362" x2="1856" y2="1362" class="rowline"/>
    <text x="1558" y="1380" class="field">user_id FK</text>
    <line x1="1554" y1="1393" x2="1856" y2="1393" class="rowline"/>
    <text x="1558" y="1411" class="field">session_id</text>
    
  </g>

  <g class="table" id="friends">
    <rect x="80" y="1360" width="360" height="176" rx="18" class="box"/>
    <rect x="80" y="1360" width="360" height="48" rx="18" class="header"/>
    <path d="M 80 1390 L 80 1408 L 440 1408 L 440 1390" class="headerFill"/>
    <text x="98" y="1391" class="tableTitle">friendships</text>
    
    <text x="98" y="1438" class="field">id PK</text>
    <line x1="94" y1="1451" x2="426" y2="1451" class="rowline"/>
    <text x="98" y="1469" class="field">requester_id FK</text>
    <line x1="94" y1="1482" x2="426" y2="1482" class="rowline"/>
    <text x="98" y="1500" class="field">receiver_id FK</text>
    <line x1="94" y1="1513" x2="426" y2="1513" class="rowline"/>
    <text x="98" y="1531" class="field">status</text>
    
  </g>

  <g class="table" id="images">
    <rect x="1540" y="1460" width="330" height="207" rx="18" class="box"/>
    <rect x="1540" y="1460" width="330" height="48" rx="18" class="header"/>
    <path d="M 1540 1490 L 1540 1508 L 1870 1508 L 1870 1490" class="headerFill"/>
    <text x="1558" y="1491" class="tableTitle">quiz_images</text>
    
    <text x="1558" y="1538" class="field">id PK</text>
    <line x1="1554" y1="1551" x2="1856" y2="1551" class="rowline"/>
    <text x="1558" y="1569" class="field">source_category</text>
    <line x1="1554" y1="1582" x2="1856" y2="1582" class="rowline"/>
    <text x="1558" y="1600" class="field">source_url</text>
    <line x1="1554" y1="1613" x2="1856" y2="1613" class="rowline"/>
    <text x="1558" y="1631" class="field">photographer</text>
    <line x1="1554" y1="1644" x2="1856" y2="1644" class="rowline"/>
    <text x="1558" y="1662" class="field">clip_tags JSONB</text>
    
  </g>
</svg>